:SAMPLES-PER-SECOND 30
:FULLY-SPECIFIED
:DEGREES
160
root  44.9096 37.389 -32.61 -5.49745 -72.0151 -2.47444
RightUpLeg  5.62842 -16.5628 -0.811608
RightLeg  36.3748 -6.61726 -5.48215
RightFoot  -27.4847 0.335083 3.65193
RightToes  0.000482159 0.542163 -0.142577
Spine  22.5767 1.61019 6.31007
Spine1  15.1048 7.87381 -14.7593
HEad  27.5865 49.8776 -4.22635
LeftShoulder1  6.50883 -11.6607 -36.8125
LeftArm  -8.26607 -25.7472 -45.5142
LeftForeArm  20.5888 -44.5137 -9.58553
LeftHand  -0.25398 0.0180481 5.50724
RightShoulder  5.92003 11.7943 32.7497
RightArm  -7.12231 4.1105 38.8738
RightForeArm  -30.1704 53.232 17.1649
RightHand  -0.461145 -0.669168 -11.2656
LeftUpLeg  -19.7116 1.65925 1.79335
LeftLeg  -1.25035 7.94632 -4.95904
LeftFoot  4.43439 1.28037 -9.41816
LeftToes  1.06247e-005 4.65854e-005 -8.18501e-006
161
root  46.5051 37.4228 -32.9996 -3.26686 -68.6207 -4.7701
RightUpLeg  2.32513 -20.4716 0.0788328
RightLeg  37.7193 -6.9634 -6.02031
RightFoot  -26.4984 0.0867228 2.00328
RightToes  0.000482159 0.542163 -0.142577
Spine  23.7852 0.701906 7.2155
Spine1  15.1388 6.53901 -13.1816
HEad  26.8297 49.0471 -5.67718
LeftShoulder1  6.5754 -11.9006 -36.5836
LeftArm  -6.37318 -26.4335 -46.5423
LeftForeArm  20.3481 -44.4994 -9.59747
LeftHand  -0.25398 0.0180481 5.50724
RightShoulder  5.86178 11.6848 32.6457
RightArm  -8.21835 3.93717 37.5692
RightForeArm  -30.3951 54.0066 17.6705
RightHand  -0.40284 -1.21682 -11.0354
LeftUpLeg  -19.9929 1.63002 1.59563
LeftLeg  -2.91024 9.98617 -5.8029
LeftFoot  2.90623 1.37237 -11.0754
LeftToes  1.06247e-005 4.65854e-005 -8.18501e-006
162
root  47.9982 37.6079 -33.383 -2.66722 -65.3966 -5.00557
RightUpLeg  -0.7663 -23.7132 0.415766
RightLeg  37.7195 -6.78148 -5.87603
RightFoot  -24.6408 -0.0550132 0.952488
RightToes  0.000482159 0.542163 -0.142577
Spine  25.0313 0.278614 7.03105
Spine1  14.9854 5.41693 -11.2816
HEad  26.3765 47.3896 -6.53787
LeftShoulder1  6.71133 -12.2482 -36.5073
LeftArm  -4.40019 -27.1015 -47.5404
LeftForeArm  19.8689 -43.8657 -9.40501
LeftHand  -0.25398 0.0180481 5.50724
RightShoulder  5.8331 11.6381 32.5754
RightArm  -9.50838 3.18174 36.4642
RightForeArm  -30.2905 54.67 18.1049
RightHand  -0.384504 -1.38197 -10.9293
LeftUpLeg  -21.0499 1.91109 0.809017
LeftLeg  -0.64933 12.1571 -5.68629
LeftFoot  2.96417 1.39341 -11.2218
LeftToes  1.06247e-005 4.65854e-005 -8.18501e-006
163
root  49.3746 37.9124 -33.715 -2.98293 -62.9532 -4.09882
RightUpLeg  -3.22205 -26.1664 0.391645
RightLeg  36.2698 -6.85609 -5.64549
RightFoot  -22.2289 -0.169647 -0.20529
RightToes  0.000482159 0.542163 -0.142577
Spine  26.045 0.299876 6.32319
Spine1  14.9694 4.7561 -9.65787
HEad  25.714 45.1975 -7.21981
LeftShoulder1  6.84362 -12.5557 -36.5155
LeftArm  -2.59037 -27.9015 -48.449
LeftForeArm  19.413 -42.7476 -9.0482
LeftHand  -0.25398 0.0180481 5.50724
RightShoulder  5.80885 11.5899 32.5379
RightArm  -10.6285 2.34142 35.7529
RightForeArm  -29.6908 54.9119 18.2394
RightHand  -0.371398 -1.31263 -10.3765
LeftUpLeg  -22.4988 5.17134 -1.47941
LeftLeg  5.24011 9.55091 -3.36537
LeftFoot  2.50236 1.22441 -10.1832
LeftToes  1.06247e-005 4.65854e-005 -8.18501e-006
164
root  50.6726 38.2704 -33.9385 -3.54576 -61.1135 -2.79507
RightUpLeg  -5.26903 -27.823 0.107965
RightLeg  34.2026 -6.99845 -5.35469
RightFoot  -19.5852 -0.197628 -0.883734
RightToes  0.000482159 0.542163 -0.142577
Spine  26.7803 0.303827 5.77555
Spine1  14.9249 4.31272 -8.75843
HEad  25.2149 42.9 -7.65256
LeftShoulder1  6.92488 -12.7705 -36.4542
LeftArm  -1.19302 -28.484 -49.1571
LeftForeArm  19.0692 -41.6257 -8.6957
LeftHand  -0.25398 0.0180481 5.50724
RightShoulder  5.79238 11.5136 32.6242
RightArm  -11.36 1.5606 35.3699
RightForeArm  -28.6648 54.8363 18.1342
RightHand  -0.339395 -1.26456 -9.35685
LeftUpLeg  -23.8428 9.95652 -4.45501
LeftLeg  12.4592 3.3596 0.0102866
LeftFoot  0.937963 1.00861 -9.42046
LeftToes  1.06247e-005 4.65854e-005 -8.18501e-006
165
root  51.9447 38.6317 -34.0337 -4.0293 -59.5943 -1.24551
RightUpLeg  -7.37767 -28.7325 -0.460745
RightLeg  31.9576 -6.91338 -4.88441
RightFoot  -16.7051 -0.148291 -0.725893
RightToes  0.000482159 0.542163 -0.142577
Spine  27.2834 0.0657979 5.51533
Spine1  14.5494 3.8923 -8.49982
HEad  25.3169 40.7822 -7.82299
LeftShoulder1  6.98348 -12.9213 -36.421
LeftArm  -0.226842 -28.4341 -49.6194
LeftForeArm  18.8701 -40.9669 -8.4953
LeftHand  -0.25398 0.0180481 5.50724
RightShoulder  5.78478 11.4517 32.7331
RightArm  -11.7554 0.510953 35.0767
RightForeArm  -27.5374 54.9754 18.1694
RightHand  -0.309663 -1.2689 -8.528
LeftUpLeg  -24.4942 8.65385 -4.11914
LeftLeg  19.5551 3.6361 1.93056
LeftFoot  -0.725286 0.849828 -9.08841
LeftToes  1.06247e-005 4.65854e-005 -8.18501e-006
166
root  53.1909 38.9374 -34.018 -4.38821 -58.503 0.417664
RightUpLeg  -9.55516 -29.3285 -1.23631
RightLeg  29.6432 -6.63168 -4.31299
RightFoot  -13.621 -0.100175 -0.435671
RightToes  0.000482159 0.542163 -0.142577
Spine  27.5091 -0.163368 5.35014
Spine1  13.9037 3.5463 -8.36413
HEad  25.7281 38.859 -8.00191
LeftShoulder1  7.05266 -13.04 -36.531
LeftArm  0.468526 -27.7984 -49.9848
LeftForeArm  18.8366 -40.7895 -8.44108
LeftHand  -0.25398 0.0180481 5.50724
RightShoulder  5.7681 11.4219 32.6989
RightArm  -11.996 -0.915364 34.7183
RightForeArm  -26.6412 55.6015 18.558
RightHand  -0.301896 -1.27086 -8.30926
LeftUpLeg  -24.6841 6.34453 -2.65683
LeftLeg  26.6062 5.88754 3.52378
LeftFoot  -1.90176 0.707791 -8.41997
LeftToes  1.06247e-005 4.65854e-005 -8.18501e-006
167
root  54.4173 39.1634 -33.9263 -4.57869 -57.9039 1.81476
RightUpLeg  -11.58 -30.0478 -1.93243
RightLeg  27.3542 -6.16048 -3.70161
RightFoot  -10.6969 -0.0679089 -0.657362
RightToes  0.000482159 0.542163 -0.142577
Spine  27.4482 -0.262753 5.25616
Spine1  13.4298 3.32242 -8.00564
HEad  25.9496 36.9978 -8.25221
LeftShoulder1  7.11977 -13.1459 -36.659
LeftArm  0.951306 -26.9443 -50.3797
LeftForeArm  18.8511 -40.7749 -8.43551
LeftHand  -0.25398 0.0180481 5.50724
RightShoulder  5.72617 11.3734 32.5431
RightArm  -12.1625 -2.274 34.3771
RightForeArm  -26.0081 56.3525 19.0664
RightHand  -0.303861 -1.27922 -8.38045
LeftUpLeg  -24.1221 5.37411 -1.08959
LeftLeg  32.8214 6.80052 5.03861
LeftFoot  -2.65407 0.582533 -7.45887
LeftToes  1.06247e-005 4.65854e-005 -8.18501e-006
168
root  55.6612 39.3095 -33.7777 -4.49507 -57.6177 2.50943
RightUpLeg  -13.3007 -30.642 -2.42067
RightLeg  25.2738 -5.68156 -3.08521
RightFoot  -8.04149 -0.0193008 -1.2143
RightToes  0.000482159 0.542163 -0.142577
Spine  27.2964 -0.47669 5.44183
Spine1  13.3156 3.08172 -7.55378
HEad  25.9002 35.2229 -8.44144
LeftShoulder1  7.16915 -13.2397 -36.7126
LeftArm  1.11351 -26.0606 -50.6389
LeftForeArm  18.781 -40.7868 -8.44391
LeftHand  -0.25398 0.0180481 5.50724
RightShoulder  5.66285 11.2691 32.3865
RightArm  -12.172 -3.10006 34.2174
RightForeArm  -25.4355 56.7695 19.3468
RightHand  -0.299006 -1.31915 -8.31639
LeftUpLeg  -22.4129 4.28608 1.13767
LeftLeg  37.6418 6.61744 5.79829
LeftFoot  -3.19332 0.547123 -7.41492
LeftToes  1.06247e-005 4.65854e-005 -8.18501e-006
169
root  56.9588 39.3538 -33.575 -4.26392 -57.5778 2.63417
RightUpLeg  -14.8431 -30.1198 -3.00998
RightLeg  23.6979 -6.0923 -2.6018
RightFoot  -5.18055 0.0559066 -1.69152
RightToes  0.000482159 0.542163 -0.142577
Spine  27.2712 -0.915229 5.79555
Spine1  13.2607 2.71054 -7.22007
HEad  25.8351 33.666 -8.55571
LeftShoulder1  7.21274 -13.3015 -36.8114
LeftArm  0.89278 -25.0659 -50.5425
LeftForeArm  18.7043 -40.9289 -8.49445
LeftHand  -0.25398 0.0180481 5.50724
RightShoulder  5.5978 11.139 32.2831
RightArm  -11.9233 -3.41957 34.1903
RightForeArm  -24.7232 56.8889 19.396
RightHand  -0.290203 -1.36683 -8.15176
LeftUpLeg  -19.7334 2.96796 3.612
LeftLeg  40.8677 5.64237 5.58322
LeftFoot  -3.78552 0.537211 -7.77826
LeftToes  1.06247e-005 4.65854e-005 -8.18501e-006
170
root  58.2967 39.2872 -33.3207 -4.2614 -57.7801 2.84555
RightUpLeg  -16.5144 -28.9796 -3.87955
RightLeg  22.7452 -6.92648 -2.32326
RightFoot  -2.12423 0.141429 -1.93759
RightToes  0.000482159 0.542163 -0.142577
Spine  27.297 -1.37075 5.80786
Spine1  13.1223 2.21891 -6.88456
HEad  25.8159 32.3567 -8.71901
LeftShoulder1  7.25032 -13.3299 -36.9576
LeftArm  0.433461 -23.9722 -50.2412
LeftForeArm  18.7224 -41.1133 -8.55245
LeftHand  -0.25398 0.0180481 5.50724
RightShoulder  5.54997 11.0357 32.2261
RightArm  -11.5274 -3.52005 34.1138
RightForeArm  -23.8005 57.0242 19.444
RightHand  -0.282696 -1.42413 -8.03876
LeftUpLeg  -16.4226 2.10679 5.55978
LeftLeg  42.3176 4.70967 4.96833
LeftFoot  -4.4909 0.438892 -6.8652
LeftToes  1.06247e-005 4.65854e-005 -8.18501e-006
171
root  59.6497 39.1544 -33.0235 -4.47154 -58.041 3.27837
RightUpLeg  -18.3134 -28.2981 -4.8129
RightLeg  22.0313 -7.07344 -2.11958
RightFoot  0.47319 0.200982 -1.91418
RightToes  0.000482159 0.542163 -0.142577
Spine  27.1207 -1.72143 5.39234
Spine1  13.1878 1.63964 -6.33877
HEad  25.7109 31.1128 -8.89701
LeftShoulder1  7.25751 -13.3468 -36.9572
LeftArm  0.00429909 -23.0335 -50.1066
LeftForeArm  18.7307 -41.0844 -8.54267
LeftHand  -0.25398 0.0180481 5.50724
RightShoulder  5.52216 10.9864 32.1639
RightArm  -11.3232 -3.51626 34.0065
RightForeArm  -22.7018 57.2421 19.5444
RightHand  -0.267728 -1.55633 -7.83407
LeftUpLeg  -12.6701 1.20813 6.82755
LeftLeg  41.5862 4.33919 4.49806
LeftFoot  -5.09093 0.346723 -5.76305
LeftToes  1.06247e-005 4.65854e-005 -8.18501e-006
172
root  61.0383 38.9923 -32.6849 -4.43254 -58.2633 3.47507
RightUpLeg  -19.8522 -26.9611 -5.96654
RightLeg  20.8774 -7.92849 -1.81949
RightFoot  3.04283 0.240742 -1.7374
RightToes  0.000482159 0.542163 -0.142577
Spine  26.7478 -2.04952 5.03387
Spine1  13.5573 1.06909 -5.80337
HEad  25.4909 29.6391 -8.93611
LeftShoulder1  7.24604 -13.362 -36.8535
LeftArm  -0.225584 -22.4416 -50.2298
LeftForeArm  18.7057 -40.9496 -8.50085
LeftHand  -0.25398 0.0180481 5.50724
RightShoulder  5.50543 10.9772 32.0724
RightArm  -11.4867 -3.39826 33.9166
RightForeArm  -21.528 57.4269 19.614
RightHand  -0.242667 -1.74192 -7.39415
LeftUpLeg  -8.74626 -1.174 7.4751
LeftLeg  38.5073 4.16713 3.92211
LeftFoot  -6.34103 0.352108 -7.34502
LeftToes  1.06247e-005 4.65854e-005 -8.18501e-006
